<svg width="24" height="24" viewBox="0 0 24 24" fill="none" xmlns="http://www.w3.org/2000/svg">
<path d="M5.25 3C4.65326 3 4.08097 3.23705 3.65901 3.65901C3.23705 4.08097 3 4.65326 3 5.25V18.75C3 19.3467 3.23705 19.919 3.65901 20.341C4.08097 20.7629 4.65326 21 5.25 21H11.05C11.103 20.74 11.197 20.489 11.33 20.256L11.763 19.5H5.25C5.05109 19.5 4.86032 19.421 4.71967 19.2803C4.57902 19.1397 4.5 18.9489 4.5 18.75V5.25C4.5 5.05109 4.57902 4.86032 4.71967 4.71967C4.86032 4.57902 5.05109 4.5 5.25 4.5H18.75C18.9489 4.5 19.1397 4.57902 19.2803 4.71967C19.421 4.86032 19.5 5.05109 19.5 5.25V13.004C19.56 13.084 19.616 13.17 19.666 13.258L21 15.589V5.25C21 4.65326 20.7629 4.08097 20.341 3.65901C19.919 3.23705 19.3467 3 18.75 3H5.25Z" fill="#7E8CAC"/>
<path d="M17.5 12C17.5 11.8011 17.421 11.6103 17.2803 11.4697C17.1397 11.329 16.9489 11.25 16.75 11.25H11.25C11.0511 11.25 10.8603 11.329 10.7197 11.4697C10.579 11.6103 10.5 11.8011 10.5 12C10.5 12.1989 10.579 12.3897 10.7197 12.5303C10.8603 12.671 11.0511 12.75 11.25 12.75H15.716C15.9485 12.5125 16.226 12.3239 16.5324 12.1951C16.8387 12.0663 17.1677 12 17.5 12V12Z" fill="#7E8CAC"/>
<path d="M14.337 15H11.25C11.0511 15 10.8603 15.079 10.7197 15.2197C10.579 15.3603 10.5 15.5511 10.5 15.75C10.5 15.9489 10.579 16.1397 10.7197 16.2803C10.8603 16.421 11.0511 16.5 11.25 16.5H13.479L14.337 15Z" fill="#7E8CAC"/>
<path d="M7.75 9.25C8.01522 9.25 8.26957 9.14464 8.45711 8.95711C8.64464 8.76957 8.75 8.51522 8.75 8.25C8.75 7.98478 8.64464 7.73043 8.45711 7.54289C8.26957 7.35536 8.01522 7.25 7.75 7.25C7.48478 7.25 7.23043 7.35536 7.04289 7.54289C6.85536 7.73043 6.75 7.98478 6.75 8.25C6.75 8.51522 6.85536 8.76957 7.04289 8.95711C7.23043 9.14464 7.48478 9.25 7.75 9.25Z" fill="#7E8CAC"/>
<path d="M11.25 7.5C11.0511 7.5 10.8603 7.57902 10.7197 7.71967C10.579 7.86032 10.5 8.05109 10.5 8.25C10.5 8.44891 10.579 8.63968 10.7197 8.78033C10.8603 8.92098 11.0511 9 11.25 9H16.75C16.9489 9 17.1397 8.92098 17.2803 8.78033C17.421 8.63968 17.5 8.44891 17.5 8.25C17.5 8.05109 17.421 7.86032 17.2803 7.71967C17.1397 7.57902 16.9489 7.5 16.75 7.5H11.25Z" fill="#7E8CAC"/>
<path d="M7.75 13C8.01522 13 8.26957 12.8946 8.45711 12.7071C8.64464 12.5196 8.75 12.2652 8.75 12C8.75 11.7348 8.64464 11.4804 8.45711 11.2929C8.26957 11.1054 8.01522 11 7.75 11C7.48478 11 7.23043 11.1054 7.04289 11.2929C6.85536 11.4804 6.75 11.7348 6.75 12C6.75 12.2652 6.85536 12.5196 7.04289 12.7071C7.23043 12.8946 7.48478 13 7.75 13Z" fill="#7E8CAC"/>
<path d="M7.75 16.75C8.01522 16.75 8.26957 16.6446 8.45711 16.4571C8.64464 16.2696 8.75 16.0152 8.75 15.75C8.75 15.4848 8.64464 15.2304 8.45711 15.0429C8.26957 14.8554 8.01522 14.75 7.75 14.75C7.48478 14.75 7.23043 14.8554 7.04289 15.0429C6.85536 15.2304 6.75 15.4848 6.75 15.75C6.75 16.0152 6.85536 16.2696 7.04289 16.4571C7.23043 16.6446 7.48478 16.75 7.75 16.75Z" fill="#7E8CAC"/>
<path d="M17.1079 13.0531C17.4276 12.9669 17.7668 12.9891 18.0726 13.1161C18.3784 13.2431 18.6334 13.4678 18.7979 13.7551L22.8019 20.7531C23.0069 21.1131 23.0479 21.5211 22.9469 21.8921C22.8619 22.21 22.6742 22.4908 22.4131 22.691C22.1519 22.8912 21.832 22.9995 21.5029 22.9991H13.4969C13.0839 22.9991 12.7099 22.8321 12.4389 22.5591C12.2055 22.3266 12.0555 22.0235 12.0121 21.6969C11.9687 21.3703 12.0344 21.0385 12.1989 20.7531L16.2009 13.7541C16.2984 13.5832 16.4287 13.4332 16.5843 13.3129C16.74 13.1926 16.918 13.1043 17.1079 13.0531V13.0531ZM17.9959 15.5001C17.9959 15.3675 17.9433 15.2403 17.8495 15.1466C17.7557 15.0528 17.6285 15.0001 17.4959 15.0001C17.3633 15.0001 17.2362 15.0528 17.1424 15.1466C17.0486 15.2403 16.9959 15.3675 16.9959 15.5001V18.5001C16.9959 18.6327 17.0486 18.7599 17.1424 18.8537C17.2362 18.9474 17.3633 19.0001 17.4959 19.0001C17.6285 19.0001 17.7557 18.9474 17.8495 18.8537C17.9433 18.7599 17.9959 18.6327 17.9959 18.5001V15.5001ZM17.4999 21.5001C17.6988 21.5001 17.8896 21.4211 18.0303 21.2805C18.1709 21.1398 18.2499 20.949 18.2499 20.7501C18.2499 20.5512 18.1709 20.3604 18.0303 20.2198C17.8896 20.0791 17.6988 20.0001 17.4999 20.0001C17.301 20.0001 17.1103 20.0791 16.9696 20.2198C16.829 20.3604 16.7499 20.5512 16.7499 20.7501C16.7499 20.949 16.829 21.1398 16.9696 21.2805C17.1103 21.4211 17.301 21.5001 17.4999 21.5001V21.5001Z" fill="#7E8CAC"/>
</svg>
